<svg xmlns="http://www.w3.org/2000/svg" width="1200" height="800" viewBox="0 0 1200 800">
  <defs>
    <linearGradient id="bg" x1="0" y1="0" x2="1" y2="1">
      <stop offset="0" stop-color="#7c0a02"/>
      <stop offset="1" stop-color="#ff4d6d"/>
    </linearGradient>
    <filter id="shadow" x="-20%" y="-20%" width="140%" height="140%">
      <feDropShadow dx="0" dy="12" stdDeviation="18" flood-color="#000" flood-opacity="0.35"/>
    </filter>
  </defs>

  <rect width="1200" height="800" fill="url(#bg)"/>
  <circle cx="600" cy="400" r="260" fill="#fff" opacity="0.08"/>

  <g filter="url(#shadow)">
    <path d="M600 210c80 0 150 70 150 150 0 60-40 120-100 160-20 14-34 32-50 54-16-22-30-40-50-54-60-40-100-100-100-160 0-80 70-150 150-150z" fill="#ffd1dc" opacity="0.25"/>
    <path d="M600 250c70 0 125 55 125 125 0 70-55 165-125 225-70-60-125-155-125-225 0-70 55-125 125-125z" fill="#ffccd5" opacity="0.25"/>
  </g>

  <text x="60" y="110" font-family="Times New Roman, Times, serif" font-weight="800" font-size="66" fill="rgba(255,255,255,0.92)">Red Rose</text>
  <text x="60" y="170" font-family="system-ui, -apple-system, Segoe UI, Roboto, Arial" font-size="30" fill="rgba(255,255,255,0.88)">Local image • guaranteed to load</text>
</svg>
